<?xml version="1.0" standalone="no"?>
<!DOCTYPE svg PUBLIC "-//W3C//DTD SVG 20010904//EN"
 "http://www.w3.org/TR/2001/REC-SVG-20010904/DTD/svg10.dtd">
<svg version="1.0" xmlns="http://www.w3.org/2000/svg"
 width="300.000000pt" height="238.000000pt" viewBox="0 0 300.000000 238.000000"
 preserveAspectRatio="xMidYMid meet">

<g transform="translate(0.000000,238.000000) scale(0.100000,-0.100000)"
fill="#000000" stroke="none">
<path d="M935 1185 c-48 -47 -16 -125 52 -125 32 0 73 42 73 75 0 14 -11 37
-25 50 -13 14 -36 25 -50 25 -14 0 -37 -11 -50 -25z"/>
<path d="M1499 1151 c-74 -24 -119 -51 -119 -73 0 -23 21 -23 62 2 18 10 58
26 88 33 42 11 55 19 55 33 0 25 -20 26 -86 5z"/>
</g>
</svg>
